<mxfile host="app.diagrams.net" agent="Mozilla/5.0 (Windows NT 10.0; Win64; x64) AppleWebKit/537.36 (KHTML, like Gecko) Chrome/140.0.0.0 Safari/537.36" version="28.2.3">
  <diagram id="Ht1M8jgEwFfnCIfOTk4-" name="Page-1">
    <mxGraphModel dx="1426" dy="783" grid="1" gridSize="10" guides="1" tooltips="1" connect="1" arrows="1" fold="1" page="1" pageScale="1" pageWidth="827" pageHeight="1169" background="#ffffff" math="0" shadow="0">
      <root>
        <mxCell id="0" />
        <mxCell id="1" parent="0" />
        <mxCell id="UEzPUAAOIrF-is8g5C7q-2" value="AWS Cloud" style="points=[[0,0],[0.25,0],[0.5,0],[0.75,0],[1,0],[1,0.25],[1,0.5],[1,0.75],[1,1],[0.75,1],[0.5,1],[0.25,1],[0,1],[0,0.75],[0,0.5],[0,0.25]];outlineConnect=0;gradientColor=none;html=1;whiteSpace=wrap;fontSize=12;fontStyle=0;shape=mxgraph.aws4.group;grIcon=mxgraph.aws4.group_aws_cloud_alt;strokeColor=#232F3E;fillColor=none;verticalAlign=top;align=left;spacingLeft=30;fontColor=#232F3E;dashed=0;container=1;pointerEvents=0;collapsible=0;recursiveResize=0;" parent="1" vertex="1">
          <mxGeometry x="390" y="182" width="1250" height="790" as="geometry" />
        </mxCell>
        <mxCell id="HL_uP290kOsdHd9ubuCa-6" value="VPC" style="points=[[0,0],[0.25,0],[0.5,0],[0.75,0],[1,0],[1,0.25],[1,0.5],[1,0.75],[1,1],[0.75,1],[0.5,1],[0.25,1],[0,1],[0,0.75],[0,0.5],[0,0.25]];outlineConnect=0;gradientColor=none;html=1;whiteSpace=wrap;fontSize=12;fontStyle=0;container=1;pointerEvents=0;collapsible=0;recursiveResize=0;shape=mxgraph.aws4.group;grIcon=mxgraph.aws4.group_vpc2;strokeColor=#8C4FFF;fillColor=none;verticalAlign=top;align=left;spacingLeft=30;fontColor=#AAB7B8;dashed=0;" parent="UEzPUAAOIrF-is8g5C7q-2" vertex="1">
          <mxGeometry x="40" y="60" width="1210" height="680" as="geometry" />
        </mxCell>
        <mxCell id="HL_uP290kOsdHd9ubuCa-7" value="Availability Zone 1" style="fillColor=none;strokeColor=#147EBA;dashed=1;verticalAlign=top;fontStyle=0;fontColor=#147EBA;whiteSpace=wrap;html=1;" parent="HL_uP290kOsdHd9ubuCa-6" vertex="1">
          <mxGeometry x="140" y="70" width="310" height="560" as="geometry" />
        </mxCell>
        <mxCell id="HL_uP290kOsdHd9ubuCa-8" value="Availability Zone 2" style="fillColor=none;strokeColor=#147EBA;dashed=1;verticalAlign=top;fontStyle=0;fontColor=#147EBA;whiteSpace=wrap;html=1;" parent="HL_uP290kOsdHd9ubuCa-6" vertex="1">
          <mxGeometry x="710" y="70" width="310" height="560" as="geometry" />
        </mxCell>
        <mxCell id="HL_uP290kOsdHd9ubuCa-9" value="Private subnet 1" style="points=[[0,0],[0.25,0],[0.5,0],[0.75,0],[1,0],[1,0.25],[1,0.5],[1,0.75],[1,1],[0.75,1],[0.5,1],[0.25,1],[0,1],[0,0.75],[0,0.5],[0,0.25]];outlineConnect=0;gradientColor=none;html=1;whiteSpace=wrap;fontSize=12;fontStyle=0;container=1;pointerEvents=0;collapsible=0;recursiveResize=0;shape=mxgraph.aws4.group;grIcon=mxgraph.aws4.group_security_group;grStroke=0;strokeColor=#00A4A6;fillColor=#E6F6F7;verticalAlign=top;align=left;spacingLeft=30;fontColor=#147EBA;dashed=0;" parent="HL_uP290kOsdHd9ubuCa-6" vertex="1">
          <mxGeometry x="220" y="440" width="130" height="130" as="geometry" />
        </mxCell>
        <mxCell id="HL_uP290kOsdHd9ubuCa-43" style="edgeStyle=orthogonalEdgeStyle;rounded=0;orthogonalLoop=1;jettySize=auto;html=1;" parent="HL_uP290kOsdHd9ubuCa-6" source="HL_uP290kOsdHd9ubuCa-10" edge="1">
          <mxGeometry relative="1" as="geometry">
            <mxPoint x="580" y="138" as="targetPoint" />
            <Array as="points">
              <mxPoint x="285" y="188" />
              <mxPoint x="581" y="188" />
            </Array>
          </mxGeometry>
        </mxCell>
        <mxCell id="HL_uP290kOsdHd9ubuCa-10" value="Public subnet 1" style="points=[[0,0],[0.25,0],[0.5,0],[0.75,0],[1,0],[1,0.25],[1,0.5],[1,0.75],[1,1],[0.75,1],[0.5,1],[0.25,1],[0,1],[0,0.75],[0,0.5],[0,0.25]];outlineConnect=0;gradientColor=none;html=1;whiteSpace=wrap;fontSize=12;fontStyle=0;container=1;pointerEvents=0;collapsible=0;recursiveResize=0;shape=mxgraph.aws4.group;grIcon=mxgraph.aws4.group_security_group;grStroke=0;strokeColor=#7AA116;fillColor=#F2F6E8;verticalAlign=top;align=left;spacingLeft=30;fontColor=#248814;dashed=0;" parent="HL_uP290kOsdHd9ubuCa-6" vertex="1">
          <mxGeometry x="220" y="200" width="130" height="130" as="geometry" />
        </mxCell>
        <mxCell id="HL_uP290kOsdHd9ubuCa-44" style="edgeStyle=orthogonalEdgeStyle;rounded=0;orthogonalLoop=1;jettySize=auto;html=1;" parent="HL_uP290kOsdHd9ubuCa-6" source="HL_uP290kOsdHd9ubuCa-11" edge="1">
          <mxGeometry relative="1" as="geometry">
            <mxPoint x="580" y="138" as="targetPoint" />
            <Array as="points">
              <mxPoint x="865" y="188" />
              <mxPoint x="581" y="188" />
            </Array>
          </mxGeometry>
        </mxCell>
        <mxCell id="HL_uP290kOsdHd9ubuCa-11" value="Public subnet 2" style="points=[[0,0],[0.25,0],[0.5,0],[0.75,0],[1,0],[1,0.25],[1,0.5],[1,0.75],[1,1],[0.75,1],[0.5,1],[0.25,1],[0,1],[0,0.75],[0,0.5],[0,0.25]];outlineConnect=0;gradientColor=none;html=1;whiteSpace=wrap;fontSize=12;fontStyle=0;container=1;pointerEvents=0;collapsible=0;recursiveResize=0;shape=mxgraph.aws4.group;grIcon=mxgraph.aws4.group_security_group;grStroke=0;strokeColor=#7AA116;fillColor=#F2F6E8;verticalAlign=top;align=left;spacingLeft=30;fontColor=#248814;dashed=0;" parent="HL_uP290kOsdHd9ubuCa-6" vertex="1">
          <mxGeometry x="800" y="190" width="130" height="130" as="geometry" />
        </mxCell>
        <mxCell id="HL_uP290kOsdHd9ubuCa-40" value="&lt;div&gt;&lt;br&gt;&lt;/div&gt;&lt;div&gt;&lt;br&gt;&lt;/div&gt;&lt;div&gt;&lt;br&gt;&lt;/div&gt;&lt;div&gt;&lt;br&gt;&lt;/div&gt;&lt;div&gt;Nat GW 2&lt;/div&gt;" style="points=[];aspect=fixed;html=1;align=center;shadow=0;dashed=0;fillColor=#FF6A00;strokeColor=none;shape=mxgraph.alibaba_cloud.nat_gateway;" parent="HL_uP290kOsdHd9ubuCa-11" vertex="1">
          <mxGeometry x="39.200000000000045" y="38" width="51.6" height="41.699999999999996" as="geometry" />
        </mxCell>
        <mxCell id="HL_uP290kOsdHd9ubuCa-12" value="Private subnet 2" style="points=[[0,0],[0.25,0],[0.5,0],[0.75,0],[1,0],[1,0.25],[1,0.5],[1,0.75],[1,1],[0.75,1],[0.5,1],[0.25,1],[0,1],[0,0.75],[0,0.5],[0,0.25]];outlineConnect=0;gradientColor=none;html=1;whiteSpace=wrap;fontSize=12;fontStyle=0;container=1;pointerEvents=0;collapsible=0;recursiveResize=0;shape=mxgraph.aws4.group;grIcon=mxgraph.aws4.group_security_group;grStroke=0;strokeColor=#00A4A6;fillColor=#E6F6F7;verticalAlign=top;align=left;spacingLeft=30;fontColor=#147EBA;dashed=0;" parent="HL_uP290kOsdHd9ubuCa-6" vertex="1">
          <mxGeometry x="800" y="430" width="130" height="130" as="geometry" />
        </mxCell>
        <mxCell id="HL_uP290kOsdHd9ubuCa-30" style="edgeStyle=orthogonalEdgeStyle;rounded=0;orthogonalLoop=1;jettySize=auto;html=1;exitX=0.05;exitY=0.533;exitDx=0;exitDy=0;exitPerimeter=0;" parent="HL_uP290kOsdHd9ubuCa-6" source="HL_uP290kOsdHd9ubuCa-23" edge="1">
          <mxGeometry relative="1" as="geometry">
            <mxPoint x="550" y="208" as="sourcePoint" />
            <mxPoint x="280" y="448" as="targetPoint" />
            <Array as="points">
              <mxPoint x="580" y="232" />
              <mxPoint x="580" y="338" />
              <mxPoint x="280" y="338" />
            </Array>
          </mxGeometry>
        </mxCell>
        <mxCell id="HL_uP290kOsdHd9ubuCa-31" style="edgeStyle=orthogonalEdgeStyle;rounded=0;orthogonalLoop=1;jettySize=auto;html=1;" parent="HL_uP290kOsdHd9ubuCa-6" source="HL_uP290kOsdHd9ubuCa-23" target="HL_uP290kOsdHd9ubuCa-12" edge="1">
          <mxGeometry relative="1" as="geometry">
            <Array as="points">
              <mxPoint x="580" y="338" />
              <mxPoint x="865" y="338" />
            </Array>
          </mxGeometry>
        </mxCell>
        <mxCell id="HL_uP290kOsdHd9ubuCa-23" value="" style="points=[];aspect=fixed;html=1;align=center;shadow=0;dashed=0;fillColor=#FF6A00;strokeColor=none;shape=mxgraph.alibaba_cloud.alb_application_load_balancer_02;" parent="HL_uP290kOsdHd9ubuCa-6" vertex="1">
          <mxGeometry x="550" y="200" width="60" height="60" as="geometry" />
        </mxCell>
        <mxCell id="HL_uP290kOsdHd9ubuCa-28" value="Amazon ECS" style="sketch=0;outlineConnect=0;fontColor=#232F3E;gradientColor=none;strokeColor=#ffffff;fillColor=#232F3E;dashed=0;verticalLabelPosition=middle;verticalAlign=bottom;align=center;html=1;whiteSpace=wrap;fontSize=10;fontStyle=1;spacing=3;shape=mxgraph.aws4.productIcon;prIcon=mxgraph.aws4.ecs;" parent="HL_uP290kOsdHd9ubuCa-6" vertex="1">
          <mxGeometry x="825" y="455" width="80" height="100" as="geometry" />
        </mxCell>
        <mxCell id="HL_uP290kOsdHd9ubuCa-29" value="Amazon ECS" style="sketch=0;outlineConnect=0;fontColor=#232F3E;gradientColor=none;strokeColor=#ffffff;fillColor=#232F3E;dashed=0;verticalLabelPosition=middle;verticalAlign=bottom;align=center;html=1;whiteSpace=wrap;fontSize=10;fontStyle=1;spacing=3;shape=mxgraph.aws4.productIcon;prIcon=mxgraph.aws4.ecs;" parent="HL_uP290kOsdHd9ubuCa-6" vertex="1">
          <mxGeometry x="240" y="470" width="80" height="100" as="geometry" />
        </mxCell>
        <mxCell id="HL_uP290kOsdHd9ubuCa-32" value="" style="swimlane;startSize=0;strokeColor=none;" parent="HL_uP290kOsdHd9ubuCa-6" vertex="1">
          <mxGeometry x="470" y="315" width="100" height="40" as="geometry" />
        </mxCell>
        <mxCell id="HL_uP290kOsdHd9ubuCa-33" value="Blue TG" style="text;html=1;align=center;verticalAlign=middle;resizable=0;points=[];autosize=1;strokeColor=#001DBC;fillColor=#0050ef;fontColor=#ffffff;" parent="HL_uP290kOsdHd9ubuCa-32" vertex="1">
          <mxGeometry x="11" y="8" width="70" height="30" as="geometry" />
        </mxCell>
        <mxCell id="HL_uP290kOsdHd9ubuCa-36" value="GreenTG" style="text;html=1;align=center;verticalAlign=middle;resizable=0;points=[];autosize=1;strokeColor=#2D7600;fillColor=#60a917;fontColor=#ffffff;" parent="HL_uP290kOsdHd9ubuCa-6" vertex="1">
          <mxGeometry x="600" y="325" width="70" height="30" as="geometry" />
        </mxCell>
        <mxCell id="HL_uP290kOsdHd9ubuCa-37" value="&lt;div&gt;&lt;br&gt;&lt;/div&gt;&lt;div&gt;&lt;br&gt;&lt;/div&gt;&lt;div&gt;&lt;br&gt;&lt;/div&gt;&lt;div&gt;&lt;br&gt;&lt;/div&gt;&lt;div&gt;Nat GW 1&lt;/div&gt;" style="points=[];aspect=fixed;html=1;align=center;shadow=0;dashed=0;fillColor=#FF6A00;strokeColor=none;shape=mxgraph.alibaba_cloud.nat_gateway;" parent="HL_uP290kOsdHd9ubuCa-6" vertex="1">
          <mxGeometry x="254.20000000000005" y="244.14999999999998" width="51.6" height="41.699999999999996" as="geometry" />
        </mxCell>
        <mxCell id="HL_uP290kOsdHd9ubuCa-41" style="edgeStyle=orthogonalEdgeStyle;rounded=0;orthogonalLoop=1;jettySize=auto;html=1;entryX=0.677;entryY=0.657;entryDx=0;entryDy=0;entryPerimeter=0;" parent="HL_uP290kOsdHd9ubuCa-6" source="HL_uP290kOsdHd9ubuCa-40" target="HL_uP290kOsdHd9ubuCa-8" edge="1">
          <mxGeometry relative="1" as="geometry">
            <Array as="points">
              <mxPoint x="865" y="318" />
              <mxPoint x="890" y="318" />
              <mxPoint x="890" y="338" />
              <mxPoint x="970" y="338" />
              <mxPoint x="970" y="438" />
            </Array>
          </mxGeometry>
        </mxCell>
        <mxCell id="HL_uP290kOsdHd9ubuCa-42" style="edgeStyle=orthogonalEdgeStyle;rounded=0;orthogonalLoop=1;jettySize=auto;html=1;entryX=0.258;entryY=0.836;entryDx=0;entryDy=0;entryPerimeter=0;" parent="HL_uP290kOsdHd9ubuCa-6" source="HL_uP290kOsdHd9ubuCa-37" target="HL_uP290kOsdHd9ubuCa-7" edge="1">
          <mxGeometry relative="1" as="geometry">
            <Array as="points">
              <mxPoint x="280" y="306" />
              <mxPoint x="200" y="306" />
              <mxPoint x="200" y="538" />
            </Array>
          </mxGeometry>
        </mxCell>
        <mxCell id="HL_uP290kOsdHd9ubuCa-47" value="" style="edgeStyle=orthogonalEdgeStyle;rounded=0;orthogonalLoop=1;jettySize=auto;html=1;" parent="HL_uP290kOsdHd9ubuCa-6" source="HL_uP290kOsdHd9ubuCa-45" target="HL_uP290kOsdHd9ubuCa-46" edge="1">
          <mxGeometry relative="1" as="geometry" />
        </mxCell>
        <mxCell id="HL_uP290kOsdHd9ubuCa-45" value="ECR REPO" style="whiteSpace=wrap;html=1;" parent="HL_uP290kOsdHd9ubuCa-6" vertex="1">
          <mxGeometry x="1040" y="58" width="120" height="60" as="geometry" />
        </mxCell>
        <mxCell id="HL_uP290kOsdHd9ubuCa-49" value="" style="edgeStyle=orthogonalEdgeStyle;rounded=0;orthogonalLoop=1;jettySize=auto;html=1;" parent="HL_uP290kOsdHd9ubuCa-6" source="HL_uP290kOsdHd9ubuCa-46" target="HL_uP290kOsdHd9ubuCa-48" edge="1">
          <mxGeometry relative="1" as="geometry" />
        </mxCell>
        <mxCell id="HL_uP290kOsdHd9ubuCa-46" value="EVENT BRIDGE" style="whiteSpace=wrap;html=1;" parent="HL_uP290kOsdHd9ubuCa-6" vertex="1">
          <mxGeometry x="1040" y="158" width="120" height="60" as="geometry" />
        </mxCell>
        <mxCell id="HL_uP290kOsdHd9ubuCa-51" value="" style="edgeStyle=orthogonalEdgeStyle;rounded=0;orthogonalLoop=1;jettySize=auto;html=1;" parent="HL_uP290kOsdHd9ubuCa-6" source="HL_uP290kOsdHd9ubuCa-57" target="HL_uP290kOsdHd9ubuCa-50" edge="1">
          <mxGeometry relative="1" as="geometry" />
        </mxCell>
        <mxCell id="HL_uP290kOsdHd9ubuCa-48" value="CODEPIPELINE" style="whiteSpace=wrap;html=1;" parent="HL_uP290kOsdHd9ubuCa-6" vertex="1">
          <mxGeometry x="1040" y="265" width="120" height="60" as="geometry" />
        </mxCell>
        <mxCell id="HL_uP290kOsdHd9ubuCa-53" value="" style="edgeStyle=orthogonalEdgeStyle;rounded=0;orthogonalLoop=1;jettySize=auto;html=1;" parent="HL_uP290kOsdHd9ubuCa-6" source="HL_uP290kOsdHd9ubuCa-50" target="HL_uP290kOsdHd9ubuCa-52" edge="1">
          <mxGeometry relative="1" as="geometry" />
        </mxCell>
        <mxCell id="HL_uP290kOsdHd9ubuCa-50" value="CODE BUILD" style="whiteSpace=wrap;html=1;" parent="HL_uP290kOsdHd9ubuCa-6" vertex="1">
          <mxGeometry x="1040" y="408" width="120" height="60" as="geometry" />
        </mxCell>
        <mxCell id="HL_uP290kOsdHd9ubuCa-52" value="CODE DEPLOY" style="whiteSpace=wrap;html=1;" parent="HL_uP290kOsdHd9ubuCa-6" vertex="1">
          <mxGeometry x="1040" y="500" width="120" height="60" as="geometry" />
        </mxCell>
        <mxCell id="HL_uP290kOsdHd9ubuCa-54" value="CLOUD WATCH" style="whiteSpace=wrap;html=1;" parent="HL_uP290kOsdHd9ubuCa-6" vertex="1">
          <mxGeometry x="1040" y="588" width="120" height="60" as="geometry" />
        </mxCell>
        <mxCell id="HL_uP290kOsdHd9ubuCa-56" style="edgeStyle=orthogonalEdgeStyle;rounded=0;orthogonalLoop=1;jettySize=auto;html=1;entryX=0.677;entryY=0.764;entryDx=0;entryDy=0;entryPerimeter=0;" parent="HL_uP290kOsdHd9ubuCa-6" source="HL_uP290kOsdHd9ubuCa-52" target="HL_uP290kOsdHd9ubuCa-8" edge="1">
          <mxGeometry relative="1" as="geometry" />
        </mxCell>
        <mxCell id="HL_uP290kOsdHd9ubuCa-57" value="" style="sketch=0;outlineConnect=0;fontColor=#232F3E;gradientColor=none;strokeColor=#ffffff;fillColor=#232F3E;dashed=0;verticalLabelPosition=middle;verticalAlign=bottom;align=center;html=1;whiteSpace=wrap;fontSize=10;fontStyle=1;spacing=3;shape=mxgraph.aws4.productIcon;prIcon=mxgraph.aws4.s3;" parent="HL_uP290kOsdHd9ubuCa-6" vertex="1">
          <mxGeometry x="1075" y="338" width="50" height="50" as="geometry" />
        </mxCell>
        <mxCell id="HL_uP290kOsdHd9ubuCa-60" value="" style="edgeStyle=orthogonalEdgeStyle;rounded=0;orthogonalLoop=1;jettySize=auto;html=1;" parent="HL_uP290kOsdHd9ubuCa-6" source="HL_uP290kOsdHd9ubuCa-48" target="HL_uP290kOsdHd9ubuCa-57" edge="1">
          <mxGeometry relative="1" as="geometry">
            <mxPoint x="1530" y="567" as="sourcePoint" />
            <mxPoint x="1530" y="650" as="targetPoint" />
          </mxGeometry>
        </mxCell>
        <mxCell id="HL_uP290kOsdHd9ubuCa-61" value="&lt;font style=&quot;font-size: 10px;&quot;&gt;Artifact Bucket&lt;/font&gt;" style="text;html=1;align=center;verticalAlign=middle;resizable=0;points=[];autosize=1;strokeWidth=1;" parent="HL_uP290kOsdHd9ubuCa-6" vertex="1">
          <mxGeometry x="1120" y="348" width="90" height="30" as="geometry" />
        </mxCell>
        <mxCell id="HL_uP290kOsdHd9ubuCa-15" value="&lt;span style=&quot;color: rgb(69, 160, 212); font-family: Helvetica; font-size: 12px; font-style: normal; font-variant-ligatures: normal; font-variant-caps: normal; font-weight: 400; letter-spacing: normal; orphans: 2; text-align: center; text-indent: 0px; text-transform: none; widows: 2; word-spacing: 0px; -webkit-text-stroke-width: 0px; white-space: normal; text-decoration-thickness: initial; text-decoration-style: initial; text-decoration-color: initial; float: none; display: inline !important;&quot;&gt;Internet Gateway&lt;/span&gt;" style="text;whiteSpace=wrap;html=1;" parent="UEzPUAAOIrF-is8g5C7q-2" vertex="1">
          <mxGeometry x="570" y="20" width="130" height="40" as="geometry" />
        </mxCell>
        <mxCell id="UEzPUAAOIrF-is8g5C7q-59" style="edgeStyle=orthogonalEdgeStyle;rounded=0;orthogonalLoop=1;jettySize=auto;html=1;endArrow=open;endFill=0;strokeWidth=2;strokeColor=#545B64;startArrow=none;" parent="1" edge="1">
          <mxGeometry relative="1" as="geometry">
            <mxPoint x="242" y="439" as="targetPoint" />
          </mxGeometry>
        </mxCell>
        <mxCell id="HL_uP290kOsdHd9ubuCa-13" value="" style="sketch=0;outlineConnect=0;fontColor=#232F3E;gradientColor=none;fillColor=#232F3D;strokeColor=none;dashed=0;verticalLabelPosition=bottom;verticalAlign=top;align=center;html=1;fontSize=12;fontStyle=0;aspect=fixed;pointerEvents=1;shape=mxgraph.aws4.internet;" parent="1" vertex="1">
          <mxGeometry x="971" y="20" width="65" height="40" as="geometry" />
        </mxCell>
        <mxCell id="HL_uP290kOsdHd9ubuCa-14" value="" style="sketch=0;outlineConnect=0;fontColor=#232F3E;gradientColor=none;fillColor=#8C4FFF;strokeColor=none;dashed=0;verticalLabelPosition=bottom;verticalAlign=top;align=center;html=1;fontSize=12;fontStyle=0;aspect=fixed;pointerEvents=1;shape=mxgraph.aws4.internet_gateway;" parent="1" vertex="1">
          <mxGeometry x="980" y="155" width="50" height="50" as="geometry" />
        </mxCell>
        <mxCell id="HL_uP290kOsdHd9ubuCa-17" style="edgeStyle=orthogonalEdgeStyle;rounded=0;orthogonalLoop=1;jettySize=auto;html=1;entryX=0.524;entryY=0.8;entryDx=0;entryDy=0;entryPerimeter=0;" parent="1" source="HL_uP290kOsdHd9ubuCa-14" target="HL_uP290kOsdHd9ubuCa-13" edge="1">
          <mxGeometry relative="1" as="geometry" />
        </mxCell>
        <mxCell id="HL_uP290kOsdHd9ubuCa-24" style="edgeStyle=orthogonalEdgeStyle;rounded=0;orthogonalLoop=1;jettySize=auto;html=1;" parent="1" source="HL_uP290kOsdHd9ubuCa-23" target="HL_uP290kOsdHd9ubuCa-14" edge="1">
          <mxGeometry relative="1" as="geometry" />
        </mxCell>
      </root>
    </mxGraphModel>
  </diagram>
</mxfile>
